<svg xmlns="http://www.w3.org/2000/svg" width="35" height="35" viewBox="0 0 35 35">
  <g id="bug" transform="translate(-31.04 -31.04)">
    <path id="Path_15" data-name="Path 15" d="M104,90.785h0a1.433,1.433,0,0,1-1.433-1.433,4.794,4.794,0,0,1,1.139-3.16c.108-.115.258-.251.437-.416.889-.8,2.723-2.458,2.723-4.3a2.869,2.869,0,1,0-5.733,0,1.433,1.433,0,1,1-2.866,0,5.734,5.734,0,1,1,11.466,0c0,3.117-2.472,5.36-3.662,6.45l-.344.308a2.284,2.284,0,0,0-.294,1.147A1.433,1.433,0,0,1,104,90.785Zm0,4.307a1.433,1.433,0,0,1-1.01-2.451,1.483,1.483,0,0,1,2.021,0,1.277,1.277,0,0,1,.179.222,1.623,1.623,0,0,1,.136.244,1.7,1.7,0,0,1,.079.272,1.377,1.377,0,0,1,0,.559,1.621,1.621,0,0,1-.079.265,1.43,1.43,0,0,1-.136.251,1.283,1.283,0,0,1-.179.222A1.433,1.433,0,0,1,104,95.092Z" transform="translate(-55.459 -36.878)" fill="#181123"/>
    <path id="Path_16" data-name="Path 16" d="M53.141,66.04h-9.2a12.9,12.9,0,0,1-12.9-12.9v-9.2a12.9,12.9,0,0,1,12.9-12.9h9.2a12.9,12.9,0,0,1,12.9,12.9v9.2A12.9,12.9,0,0,1,53.141,66.04Zm-9.2-32.134A10.033,10.033,0,0,0,33.907,43.939v9.2A10.033,10.033,0,0,0,43.939,63.174h9.2A10.033,10.033,0,0,0,63.174,53.141v-9.2A10.033,10.033,0,0,0,53.141,33.907Z" transform="translate(0 0)" fill="#181123"/>
  </g>
</svg>
