<svg xmlns="http://www.w3.org/2000/svg" width="25" height="25" viewBox="0 0 25 25">
  <path id="calendar" d="M32.6,35.1a1.25,1.25,0,1,0-1.25-1.25A1.25,1.25,0,0,0,32.6,35.1Zm6.25,0a1.25,1.25,0,1,0-1.25-1.25A1.25,1.25,0,0,0,38.85,35.1Zm-6.25,5a1.25,1.25,0,1,0-1.25-1.25A1.25,1.25,0,0,0,32.6,40.1Zm6.25,0a1.25,1.25,0,1,0-1.25-1.25A1.25,1.25,0,0,0,38.85,40.1Zm-12.5-5a1.25,1.25,0,1,0-1.25-1.25A1.25,1.25,0,0,0,26.35,35.1Zm15-12.5H40.1V21.35a1.25,1.25,0,1,0-2.5,0V22.6h-10V21.35a1.25,1.25,0,0,0-2.5,0V22.6H23.85a3.75,3.75,0,0,0-3.75,3.75v15a3.75,3.75,0,0,0,3.75,3.75h17.5a3.75,3.75,0,0,0,3.75-3.75v-15A3.75,3.75,0,0,0,41.35,22.6ZM42.6,41.35a1.25,1.25,0,0,1-1.25,1.25H23.85a1.25,1.25,0,0,1-1.25-1.25V30.1h20Zm0-13.75h-20V26.35a1.25,1.25,0,0,1,1.25-1.25h17.5a1.25,1.25,0,0,1,1.25,1.25ZM26.35,40.1a1.25,1.25,0,1,0-1.25-1.25A1.25,1.25,0,0,0,26.35,40.1Z" transform="translate(-20.1 -20.1)" fill="#a0a2a5"/>
</svg>
