<svg xmlns="http://www.w3.org/2000/svg" width="35" height="35" viewBox="0 0 35 35">
  <g id="issue" transform="translate(-1335 -605.568)">
    <path id="error-in-sync" d="M36.257,43.993A1.75,1.75,0,0,0,39.25,42.75a1.838,1.838,0,0,0-.507-1.243,1.809,1.809,0,0,0-2.485,0,1.837,1.837,0,0,0-.507,1.243A1.75,1.75,0,0,0,36.257,43.993Zm15.085-.35H43.415a1.75,1.75,0,0,0,0,3.5h4.2A14,14,0,0,1,23.5,37.5a1.75,1.75,0,1,0-3.5,0A17.5,17.5,0,0,0,49.54,50.152v3.1a1.75,1.75,0,0,0,3.5,0V45.375A1.75,1.75,0,0,0,51.342,43.643ZM37.5,20a17.5,17.5,0,0,0-12.04,4.847v-3.1a1.75,1.75,0,0,0-3.5,0v7.875a1.75,1.75,0,0,0,1.75,1.75h7.875a1.75,1.75,0,1,0,0-3.5h-4.2A14,14,0,0,1,51.5,37.5a1.75,1.75,0,0,0,3.5,0A17.5,17.5,0,0,0,37.5,20Zm0,19.25a1.75,1.75,0,0,0,1.75-1.75V32.25a1.75,1.75,0,0,0-3.5,0V37.5A1.75,1.75,0,0,0,37.5,39.25Z" transform="translate(1315 585.568)" fill="#181123"/>
  </g>
</svg>
