<svg xmlns="http://www.w3.org/2000/svg" width="35" height="35" viewBox="0 0 35 35">
  <g id="task" transform="translate(0.008 0.083)">
    <g id="checkmark-circle" transform="translate(-0.008 -0.083)">
      <rect id="Rectangle_211" data-name="Rectangle 211" width="34.992" height="34.917" transform="translate(0.008 0.083)" fill="#181123" opacity="0"/>
      <path id="Path_10" data-name="Path 10" d="M69.639,59.451a1.767,1.767,0,0,0-2.491,0,1.747,1.747,0,0,0,0,2.479l5.262,5.238a1.708,1.708,0,0,0,2.508-.087L87.2,53.114a1.74,1.74,0,0,0-.207-2.406,1.76,1.76,0,0,0-2.424.1L73.656,63.379Z" transform="translate(-56.206 -43.232)" fill="#181123"/>
      <path id="Path_11" data-name="Path 11" d="M50.335,32.379a1.75,1.75,0,0,0-1.754,1.746A14.042,14.042,0,1,1,34.548,20.158a15.489,15.489,0,0,1,3.333.384,1.76,1.76,0,0,0,1.763-.438,1.743,1.743,0,0,0-.938-2.949,18.572,18.572,0,0,0-4.157-.489A17.459,17.459,0,1,0,52.089,34.125a1.75,1.75,0,0,0-1.754-1.746Z" transform="translate(-17.097 -16.667)" fill="#181123"/>
    </g>
  </g>
</svg>
