<svg id="time" xmlns="http://www.w3.org/2000/svg" width="25" height="25" viewBox="0 0 25 25">
  <path id="Path_17" data-name="Path 17" d="M32.6,20.1A12.5,12.5,0,1,0,45.1,32.6,12.5,12.5,0,0,0,32.6,20.1Zm1.25,22.413V41.35a1.25,1.25,0,1,0-2.5,0v1.163a10.009,10.009,0,0,1-8.663-8.663H23.85a1.25,1.25,0,1,0,0-2.5H22.687a10.009,10.009,0,0,1,8.663-8.663V23.85a1.25,1.25,0,0,0,2.5,0V22.687a10.009,10.009,0,0,1,8.663,8.663H41.35a1.25,1.25,0,0,0,0,2.5h1.163A10.009,10.009,0,0,1,33.85,42.513Z" transform="translate(-20.1 -20.1)" fill="#a0a2a5"/>
  <path id="Path_18" data-name="Path 18" d="M113.05,76.082V71.6a1.25,1.25,0,0,0-2.5,0v5a1.249,1.249,0,0,0,.366.884l3.75,3.75a1.25,1.25,0,1,0,1.768-1.768Z" transform="translate(-99.3 -64.1)" fill="#a0a2a5"/>
</svg>
